<?xml version="1.0" encoding="utf-8" ?><svg xmlns="http://www.w3.org/2000/svg" xmlns:xlink="http://www.w3.org/1999/xlink" width="1024" height="1024" viewBox="0 0 1024 1024"><path fill="#FEFEFE" d="M0 0L1024 0L1024 1024L0 1024L0 0Z"/><path fill="#1A1A1A" d="M534.637 648.242C539.05 648.22 543.464 648.272 547.875 648.398C565.278 648.818 588.632 650.353 606.11 651.945C609.123 652.22 626.634 660.821 630.335 662.503L680.696 685.611L747.266 716.219C758.649 721.329 857.616 764.789 857.125 772.268C854.906 772.29 846.337 769.473 843.491 768.88C836.426 767.408 828.981 765.65 821.892 764.386C787.054 758.173 744.064 758.605 709.863 767.898C673.182 777.866 634.969 800.74 615.575 834.02C618.525 835.905 621.278 837.308 623.25 840.181L622.979 840.737C620.323 840.675 607.755 836.61 604.264 835.63C595.718 833.185 587.083 831.066 578.376 829.276C529.344 819.384 476.743 822.906 428.428 835.131C391.803 843.526 367.243 854.804 334.349 871.201C289.598 842.53 245.086 813.488 200.817 784.077C181.559 771.696 162.392 759.175 143.317 746.515C139.395 743.94 120.289 732.831 119.793 730.113C120.285 729.562 120.89 728.938 121.575 728.618C192.827 695.405 272.92 677.474 351.161 692.576C364.09 695.072 376.386 698.892 388.722 702.466C389.251 701.891 389.789 701.324 390.337 700.766C399.036 691.829 408.672 684.456 419.091 677.726C455.596 654.147 492.274 648.887 534.637 648.242Z"/><path fill="#017AFC" d="M292.974 690.239C323.731 690.062 360.912 695.37 389.777 706.747C394.668 708.675 412.079 718.912 418.055 722.224C436.08 732.033 454.045 741.951 471.95 751.978C452.752 762.005 441.466 774.801 429.89 792.633C422.832 799.497 431.794 811.946 437.505 801.968C449.453 781.093 460.797 769.161 483.424 758.675C489.908 761.531 505.847 770.997 512.761 774.857C545.903 793.471 578.361 813.276 610.073 834.235C577.858 823.845 533.195 817.807 499.321 820.92C441.623 824.299 385.363 840.271 334.496 867.713C326.767 862.249 317.282 856.383 309.214 851.121L258.257 817.935C214.089 789.039 169.46 759.285 125.007 730.957C182.583 704.981 229.121 691.544 292.974 690.239Z"/><path fill="#1A1A1A" d="M346.296 729.679C370.783 725.962 397.879 743.42 355.541 750.382C347.039 751.22 335.826 751.778 328.097 748.15C317.389 743.124 324.297 736.186 331.754 733.325C337.449 731.14 340.399 730.446 346.296 729.679Z"/><path fill="#017AFC" d="M517.283 651.708C520.892 651.269 530.406 651.301 534.187 651.292C551.645 651.409 569.094 652.127 586.503 653.446C590.988 653.756 602.527 654.332 606.266 655.37C611.441 656.806 620.815 661.535 626.101 663.95L669.23 683.816L755.197 723.082C781.56 734.956 819.08 751.525 843.689 766.15C815.217 757.797 786.743 756.503 757.257 757.579C701.658 759.606 642.936 783.159 613.016 832.351C606.703 828.383 600.441 824.334 594.232 820.206C557.687 796.635 524.86 778.2 487.373 756.938C516.659 746.052 547.672 749.245 575.15 763.664C580.953 766.708 585.475 771.282 591.055 774.376C594.05 772.778 598.109 770.998 598.148 767.257C596.549 764.212 593.7 762.708 590.993 760.754C563.296 740.763 527.702 735.138 494.77 743.278C488.034 744.943 481.871 747.449 475.416 750.048C456.486 740.237 437.958 728.633 418.951 718.808C410.102 714.235 400.578 709.126 392.184 703.843C397.559 697.854 405.372 691.402 411.956 686.589C444.76 662.605 477.626 654.566 517.283 651.708Z"/><path fill="#1A1A1A" d="M528.708 685.715C554.608 685.869 575.871 702.645 535.875 704.854C527.283 704.802 517.156 704.357 509.706 699.862C500.648 694.397 507.485 689.156 514.505 687.549C519.806 686.336 523.354 686.014 528.708 685.715Z"/><defs><linearGradient id="gradient_0" gradientUnits="userSpaceOnUse" x1="502.31906" y1="736.50513" x2="459.37817" y2="989.48633"><stop offset="0" stop-color="#151515"/><stop offset="1" stop-color="#303032"/></linearGradient></defs><path fill="url(#gradient_0)" d="M101.611 780.168C104.056 780.29 136.149 801.996 140.573 804.873C174.267 826.525 207.818 848.398 241.224 870.491C263.501 885.134 285.527 900.045 307.579 915.015C309.987 916.65 313.795 919.142 313.014 922.299C311.706 922.134 277.806 898.689 274.019 896.13C229.236 866.32 184.224 836.857 138.987 807.744C134.923 805.125 111.32 789.032 108.301 788.533C107.654 790.602 103.267 793.909 101.239 795.974C102.015 796.752 102.828 797.491 103.676 798.189C108.702 802.334 122.605 810.895 128.385 814.625L182.333 849.015L262.137 900.574C275.739 909.364 289.509 918.54 303.385 926.888C306.804 928.945 310.761 930.95 314.614 929.892C325.657 926.861 340.105 917.917 350.212 913.126C363.847 906.663 415.277 884.522 427.594 883.354C428.283 884.446 428.076 883.817 427.737 885.45C424.971 887.69 412.882 891.156 408.564 892.704C395.727 897.259 383.05 902.24 370.523 907.591C363.974 910.389 356.003 913.185 350.058 917.02C362.402 915.137 377.573 911.675 389.787 908.956L449.11 895.479C487.001 886.892 524.866 879.534 562.875 870.885C531.79 865.411 493.093 869.612 462.52 876.697C460.789 877.098 460.239 877.29 458.878 876.35C458.467 872.896 469.186 871.637 471.997 871.04C498.023 865.514 524.385 864.534 550.877 866.308C557.924 866.584 565.574 868.002 572.546 869.218C590.188 846.719 615.809 839.841 642.558 849.603C657.823 838.249 671.003 830.755 689.015 824.164C740.623 805.279 806.019 798.259 859.737 812.009C870.571 814.782 880.402 818.805 890.472 823.336C886.276 815.798 877.466 804.396 869.004 801.349C865.381 800.044 858.233 800.546 856.239 798.255C856.594 796.885 856.259 797.474 857.478 796.595C863.012 796.512 870.735 798.034 876.044 799.64C882.226 801.51 913.678 817.026 915.874 821.708C917.29 824.725 917.361 836.929 915.803 839.659C913.862 843.062 909.568 843.116 906.128 843.71C894.241 845.766 882.315 849.269 870.534 851.956C850.161 856.52 829.736 860.848 809.264 864.942L714.129 883.868C699.167 886.792 684.079 889.453 669.145 892.487C663.984 893.536 658.647 897.221 653.739 899.6C645.599 903.545 639.562 905.582 630.741 907.302C615.425 910.212 599.798 911.136 584.247 910.049C577.6 909.626 574.145 906.958 567.124 908.359C546.11 912.552 525.093 917.454 504.134 921.844L328.43 960.114C293.902 967.65 289.949 963.182 262.087 945.191L214.332 914.066L62.6682 815.73C62.2317 807.374 62.4373 796.785 62.3857 788.216C64.7321 787.506 67.8232 786.888 70.2916 786.423C80.62 784.477 91.2294 781.521 101.611 780.168Z"/><path fill="#FEFEFE" d="M571.705 891.565C510.25 905.386 448.693 918.752 387.041 931.664C370.144 935.48 353.222 939.179 336.275 942.762C303.448 949.709 304.017 952.96 275.001 934.294L138.125 844.614C120.53 833.108 103.027 821.463 85.618 809.678C79.8916 805.855 73.9162 802.43 68.1871 798.627C65.567 796.887 63.9679 795.128 64.4785 791.901C65.8456 791.646 69.3375 794.286 70.6606 795.213C118.841 828.957 168.654 860.117 217.583 892.746L267.611 925.729C272.647 929.027 278.185 932.537 283.219 935.838C296.564 944.585 300.19 947.213 316.156 943.863C336.256 939.645 356.15 935.213 376.142 930.801L473.071 909.837L537.033 896.028C544.972 894.33 564.028 890.799 571.09 888.366C573.922 874.523 578.632 866.08 590.469 857.84C606.926 846.384 639.983 843.547 652.123 862.691C653.054 864.153 653.882 865.679 654.599 867.258C656.113 865.544 655.79 865.378 656.146 863.2C656.37 863.055 656.59 862.903 656.817 862.765C661.893 859.681 697.898 855.378 706.659 853.899C727.585 850.404 748.489 846.783 769.371 843.037C783.368 840.437 797.306 837.526 811.174 834.307C818.108 832.713 826.489 830.513 833.39 829.268C837.266 828.569 847.714 831.045 851.966 831.469C854.254 831.697 857.496 831.788 859.648 832.321L859.893 833.14C859.499 834.023 859.247 834.658 858.772 835.488L859.216 835.431C862.435 834.994 871.403 832.8 873.902 832.667C880.064 832.34 909.677 823.348 912.6 824.059C913.977 825.347 913.544 824.576 913.881 826.489C912.357 829.692 902.423 830.715 898.593 831.483L870.913 837.101C825.681 846.391 780.397 855.435 735.066 864.232L685.458 874.065C676.968 875.742 667.894 877.485 659.455 879.559C656.711 880.233 651.968 884.895 649.524 886.614C642.583 891.494 631.175 895.216 622.73 896.537C609.445 898.615 588.838 900.084 576.102 894.478C575.04 894.011 572.672 892.282 571.705 891.565Z"/><path fill="#1A1A1A" d="M654.599 867.258C656.113 865.544 655.79 865.378 656.146 863.2C656.37 863.055 656.59 862.903 656.817 862.765C661.893 859.681 697.898 855.378 706.659 853.899C727.585 850.404 748.489 846.783 769.371 843.037C783.368 840.437 797.306 837.526 811.174 834.307C818.108 832.713 826.489 830.513 833.39 829.268C837.266 828.569 847.714 831.045 851.966 831.469C854.254 831.697 857.496 831.788 859.648 832.321L859.893 833.14C859.499 834.023 859.247 834.658 858.772 835.488C846.541 838.922 829.737 841.949 817.061 844.54C793.79 849.355 770.494 854.042 747.171 858.6L685.717 870.653C677.506 872.27 665.63 875.219 657.706 876.313C656.715 873.269 655.768 870.238 654.599 867.258Z"/><path fill="#1A1A1A" d="M616.819 852.669C635.284 849.576 650.445 858.999 654.47 877.5C643.898 889.489 628.915 892.32 613.769 894.404C603.114 895.175 587.002 896.545 577.319 891.439C571.296 888.262 578.204 875.209 581.188 871.195C589.795 859.618 602.929 854.641 616.819 852.669Z"/><path fill="#FEFEFE" d="M795.016 808.223C827.496 806.761 859.869 812.905 889.556 826.166C884.196 827.083 874.399 829.911 870.049 830.366C866.552 830.731 852.038 827.929 847.851 827.268C837.969 825.621 828.017 824.424 818.026 823.68C784.6 821.346 754.34 825.446 722.045 833.302C708.073 837.199 694.388 842.061 681.089 847.853C672.993 851.445 662.8 856.855 654.733 859.697C651.64 856.257 648.81 854.052 645.145 851.296C686.003 821.067 745.274 809.759 795.016 808.223Z"/><path fill="#FEFEFE" d="M785.91 826.705C796.626 825.632 813.848 826.459 824.538 827.512C819.687 829.419 803.751 832.674 797.872 833.971C767.306 840.716 735.897 845.703 705.018 851.115C695.418 852.119 680.841 854.754 671.018 856.412C677.726 852.672 686.275 849.364 693.457 846.523C723.611 834.595 753.7 829.231 785.91 826.705Z"/><path fill="#1A1A1A" d="M888.335 808.23C893.674 811.455 906.241 817.772 910.273 821.001C909.601 822.357 909.379 822.101 907.722 822.969C903.911 823.674 899.011 824.853 895.345 825.243C892.217 819.359 885.615 814.874 888.335 808.23Z"/><path fill="#1A1A1A" d="M760.653 770.215C775.84 769.543 791.057 770.134 806.146 771.985C816.45 773.213 870.749 783.281 875.076 788.773L874.745 789.426C871.634 790.322 859.864 786.322 855.919 785.259C847.574 783.019 839.154 781.068 830.674 779.409C779.525 769.198 730.074 769.344 683.172 794.408C673.613 799.517 663.522 804.54 655.636 812.162C652.805 814.899 643.033 823.857 642.923 827.083C654.147 820.879 664.25 812.653 676.977 807.225C684.961 803.819 715.518 790.29 722.648 792.828L722.924 793.681C720.874 796.365 713.594 797.419 710.123 798.394C703.822 800.144 697.61 802.201 691.509 804.558C677.199 810.086 664.623 817.031 651.814 825.39C649.021 827.213 645.772 828.73 643.059 830.492C640.454 832.183 638.718 833.875 635.911 835.576C633.961 835.25 634.555 835.742 633.599 834.581C634.381 830.098 642.539 821.023 645.737 817.486C672.338 788.064 721.816 772.046 760.653 770.215Z"/><path fill="#1A1A1A" d="M525.509 847.711C539.9 847.037 554.423 847.279 568.675 849.519C571.761 850.004 576.407 849.706 577.565 853.001C575.848 854.252 571.844 853.206 569.675 852.865C545.36 849.043 519.918 850.28 495.555 853.724C439.547 861.955 385.345 879.644 335.264 906.037C330.403 908.674 325.21 911.957 320.274 914.739C316.551 911.238 301.529 900.688 300.96 898.693L301.929 898.272C307.099 898.531 316.595 907.361 321.228 910.702C334.252 901.895 353.237 892.76 367.564 886.628C417.664 864.911 471.054 851.756 525.509 847.711Z"/><path fill="#1A1A1A" d="M107.194 747.687C114.006 749.292 180.675 793.512 192.051 800.722C210.115 811.979 228.107 823.352 246.026 834.84C253.035 839.283 265.518 846.499 272.111 852.022C272.642 852.466 272.004 853.536 271.744 854.315C268.184 853.67 233.792 830.944 227.364 826.833L134.97 768.227C131.336 765.947 107.94 751.872 106.943 750.056C106.539 749.321 107.008 748.453 107.194 747.687Z"/><path fill="#1A1A1A" d="M470.619 839.694C470.936 839.746 471.779 840.3 472.11 840.494L472.068 841.577C470.005 843.997 461.91 844.399 458.392 845.039C449.543 846.623 440.734 848.421 431.971 850.431C389.377 860.465 357.305 872.84 319.372 893.872C315.523 891.318 310.783 887.307 306.565 884.393L305.342 883.374C305.303 881.659 305.006 882.33 306.05 881.209C308.959 881.034 316.951 888.153 319.538 890.18C368.374 862.397 415.595 848.882 470.619 839.694Z"/><path fill="#1A1A1A" d="M110.694 767.71C113.269 768.411 130.808 780.352 134.356 782.56C160.358 798.662 186.254 814.935 212.041 831.378C222.55 838.016 238.865 847.251 248.445 854.432C248.749 855.966 248.54 855.65 247.676 857.423C217.67 838.769 187.76 819.961 157.946 801.001C143.828 792.113 122.719 780.174 109.839 770.868C109.536 769.229 109.743 769.587 110.694 767.71Z"/><path fill="#1A1A1A" d="M512.718 838.269C519.5 837.893 565.903 838.384 568.752 842.775C567.16 844.822 565.199 844.19 562.949 843.819L562.151 843.684C550.488 842.229 538.754 841.412 527.002 841.237C523.774 841.183 508.877 842.095 507.417 840.302L507.982 839.307C510.169 837.971 509.794 838.409 512.718 838.269Z"/><path fill="#1A1A1A" d="M755.531 787.73C760.16 787.643 786.354 788.388 789.158 790.36L789.338 791.814L788.693 792.522C786.161 793.167 782.609 792.434 779.885 792.092C771.654 791.519 763.568 790.813 755.317 791.057C753.286 791.118 746.547 791.62 745.035 790.694C744.587 789.208 744.613 789.985 745.313 788.303C746.973 787.797 753.408 787.784 755.531 787.73Z"/></svg>