<svg xmlns="http://www.w3.org/2000/svg" version="1.1" xmlns:xlink="http://www.w3.org/1999/xlink" width="1024" height="1024"><svg xmlns="http://www.w3.org/2000/svg" version="1.1" xmlns:xlink="http://www.w3.org/1999/xlink" width="1024" height="1024"><svg width="1024" height="1024" viewBox="0 0 1024 1024" version="1.1" id="svg5" xmlns="http://www.w3.org/2000/svg" xmlns:svg="http://www.w3.org/2000/svg">
  <defs id="defs5"></defs>
  <path d="m 330.15412,84.24045 c 16.66824,-1.269747 46.40194,-0.366124 64.15881,-0.366124 l 123.36523,0.01749 385.18847,-0.109037 c -5.05169,15.324491 -9.67298,33.490331 -14.17161,49.229631 -8.32145,29.02484 -17.19599,57.88801 -26.61582,86.57397 16.29043,-2.50637 40.65111,-2.06818 57.80035,-2.12466 l 82.94785,-0.0993 -210.99863,714.93688 c -17.67508,0.4226 -36.03175,0.16554 -53.75746,0.1519 L 43.115282,931.82215 C 38.490074,914.82868 34.334211,897.83327 29.9505,880.84175 22.100323,850.42256 17.636765,821.55353 27.543454,790.87726 36.789959,762.23999 47.631416,733.96493 57.672483,705.49903 80.336923,640.50476 103.48629,575.67992 127.12056,511.03231 L 240.49343,194.3552 c 9.14913,-25.2643 18.70917,-56.96686 29.30331,-80.85821 6.48696,-14.629254 44.02409,-27.585652 60.35738,-29.256564 z" id="path2" style="stroke-width:1.94745"></path>
  <path fill="#fefefe" d="m 861.08795,221.97788 c 46.61031,-0.26485 23.12793,42.98611 64.51325,52.55199 -11.24849,40.80497 -25.05592,82.18247 -37.29372,122.80827 l -69.49481,230.14403 c -14.8357,48.00859 -33.35013,103.50123 -45.94624,151.61692 l -244.74992,0.23565 -80.11817,0.0293 c -15.24272,0.0214 -51.34458,-2.74201 -62.23668,6.82193 -5.29902,4.65635 -8.55515,11.20953 -9.06344,18.24567 -0.43623,6.82582 2.01562,13.52116 6.75182,18.456 11.11995,11.39843 39.64233,7.90081 55.32905,7.7236 l 64.67488,-0.20059 c 84.69859,-0.12464 169.39522,-1.00099 254.08017,-2.62322 -3.41583,14.81817 -7.69244,29.426 -12.8084,43.74561 l -230.61141,0.14216 -283.6717,0.078 C 182.91312,871.73563 125.8742,870.25358 79.059393,872.31593 73.164464,838.67565 53.409514,797.96221 82.817976,768.4739 111.74738,739.46659 157.56704,744.21838 195.24049,744.17553 l 105.19551,-0.0214 c 69.61751,-0.67966 139.23697,-0.93866 208.85838,-0.77508 63.08576,0.11486 129.73731,1.27169 192.64195,0.0448 C 756.57404,570.09674 809.62653,396.27496 861.08795,221.978 Z" id="path3" style="stroke-width:1.94745"></path>
  <path fill="#fefefe" d="m 579.5565,336.77433 c 0.94257,6.79466 -1.67676,18.81823 -2.10909,26.21465 -2.4382,41.8449 -0.27654,84.8057 36.76594,110.49259 -48.48181,16.00805 -78.18045,37.88767 -108.99304,79.17755 -6.82193,9.14328 -13.26214,21.67124 -20.54367,29.97519 3.80337,-46.30263 13.16868,-109.47213 -34.78928,-136.04316 55.06615,-19.96139 95.34531,-64.19191 129.66914,-109.81682 z" id="path4" style="stroke-width:1.94745"></path>
  <path fill="#fefefe" d="m 427.79157,154.74599 c 0.81599,6.40128 -0.14021,16.00027 -0.0331,22.71899 0.65628,41.61898 0.88025,81.86893 37.1788,108.04658 -10.19685,3.91632 -20.7423,6.41295 -30.49904,12.04888 -42.46809,24.53011 -68.79958,66.75671 -91.31992,108.17512 l 0.97567,-10.18129 c 3.01855,-21.33627 1.7644,-54.74092 -5.09453,-74.88536 -7.97677,-23.42201 -21.43171,-37.90326 -43.22954,-48.75251 71.69934,-26.82616 89.81064,-60.4236 132.02167,-117.17041 z" id="path5" style="stroke-width:1.94745"></path>
</svg></svg><style>@media (prefers-color-scheme: light) { :root { filter: none; } }
@media (prefers-color-scheme: dark) { :root { filter: none; } }
</style></svg>